<svg xmlns="http://www.w3.org/2000/svg" width="73" height="74.063" viewBox="0 0 73 74.063"><defs><style>.a{fill:#9d292d;}.b{fill:#e03b3f;}.c{fill:#fff;}</style></defs><g transform="translate(0)"><path class="a" d="M36.509,0A36.82,36.82,0,0,0,0,37.041,36.8,36.8,0,0,0,36.509,74.063,36.8,36.8,0,0,0,73,37.041,36.8,36.8,0,0,0,36.509,0Z" transform="translate(0)"/><path class="b" d="M35.765,71.624A35.132,35.132,0,0,1,.89,36.272,35.113,35.113,0,0,1,35.765.92,35.132,35.132,0,0,1,70.64,36.272,35.15,35.15,0,0,1,35.765,71.624Z" transform="translate(0.744 0.769)"/><path class="c" d="M35,69.22A33.5,33.5,0,0,1,1.8,35.52,33.48,33.48,0,0,1,35,1.82a33.5,33.5,0,0,1,33.241,33.7A33.5,33.5,0,0,1,35,69.22Z" transform="translate(1.504 1.521)"/><path class="a" d="M2.46,34.96A32.232,32.232,0,0,1,34.453,2.49,32.232,32.232,0,0,1,66.447,34.96a32.232,32.232,0,0,1-31.993,32.47A32.232,32.232,0,0,1,2.46,34.96Z" transform="translate(2.055 2.08)"/><path class="c" d="M26.716,19.4ZM22.256,22.851ZM17.3,19.18a2.992,2.992,0,0,1,.2.312,1.358,1.358,0,0,0,0-.257Zm4.2,1.762h.073l-.073.147Zm1.065.092h.018v.018Z" transform="translate(14.455 16.025)"/><path class="c" d="M47.7,16.659a2.827,2.827,0,0,0,2.166-2.845c0-1.193-.569-3.175-4.5-3.175h-7.1a.275.275,0,0,0-.275.275v.881a.275.275,0,0,0,.275.275h.826c.551,0,.569,0,.569.624v8.59c0,.551,0,.624-.569.624h-.9a.275.275,0,0,0-.275.275v.881a.275.275,0,0,0,.275.275h6.957c4.387,0,5.3-1.836,5.3-3.506A3.267,3.267,0,0,0,47.7,16.659Zm-4.479-3.946c0-.642,0-.642.881-.642,1.744,0,2.258.477,2.258,2S45.714,16.09,43.6,16.09h-.385Zm1.065,9.178c-1.046,0-1.065,0-1.065-.918v-3.4h.551a3.671,3.671,0,0,1,2.386.441,2.074,2.074,0,0,1,.661,1.634c0,1.634-.661,2.221-2.533,2.221ZM25.707,17.411v.863a.294.294,0,0,1-.275.294h-.661c-.459,0-.551,0-.551.606v4.148a.275.275,0,0,1-.275.275h-.789a.312.312,0,0,1-.239-.147l-.661-1.3a5.341,5.341,0,0,1-3.818,1.468,6.094,6.094,0,0,1-3.671-1.248,6.443,6.443,0,0,1-2.46-5.415,6.681,6.681,0,0,1,2.551-5.4A6.59,6.59,0,0,1,18.9,10.308a5.213,5.213,0,0,1,3.212.9l.753-.734a.275.275,0,0,1,.2,0H23.8a.275.275,0,0,1,.275.275l.165,4.754a.294.294,0,0,1-.257.294h-.826a.257.257,0,0,1-.294-.2c-.661-2.386-2.129-3.8-3.763-3.8-1.285,0-2.992.532-2.992,5.213,0,3.671.808,5.121,2.68,5.121,1.413,0,2.166-.881,2.166-2.478v-.477c0-.551,0-.606-.551-.606h-.9a.294.294,0,0,1-.275-.294v-.863a.294.294,0,0,1,.275-.275h5.929a.275.275,0,0,1,.275.275Zm4.2,4.754a1.542,1.542,0,0,1,0,1.927,3.671,3.671,0,0,1-1.285-.771,4.993,4.993,0,0,1-.459-2.037C28.35,21.486,29.029,21.193,29.91,22.165Zm0,0a1.542,1.542,0,0,1,0,1.891,3.818,3.818,0,0,1-1.322-.881,4.882,4.882,0,0,1-.459-2.019c.22.33.9-.018,1.78.973ZM30,18.494a1.56,1.56,0,0,1,0,1.946,3.818,3.818,0,0,1-1.3-.881,4.772,4.772,0,0,1-.441-2.019c.184.275.863.018,1.652.991Zm.184-3.506a1.487,1.487,0,0,1,.092,1.836A3.451,3.451,0,0,1,29.011,16a4.626,4.626,0,0,1-.422-1.836c.128.239.753-.018,1.542.863Zm0-3.561a1.505,1.505,0,0,1,.092,1.836,3.671,3.671,0,0,1-1.267-.826,4.7,4.7,0,0,1-.477-1.964c.184.349.808,0,1.6.991Zm.165-3.175a1.267,1.267,0,0,1,0,1.6,3.047,3.047,0,0,1-1.065-.716,4.057,4.057,0,0,1-.367-1.67c.147.275.7.037,1.377.826ZM35.2,21.1a4.772,4.772,0,0,1-.441,2.019,3.818,3.818,0,0,1-1.3.881,1.523,1.523,0,0,1,.128-1.872c.716-.991,1.395-.642,1.56-.973Zm0-3.671a5.213,5.213,0,0,1-.569,2.221,3.818,3.818,0,0,1-1.322.881,1.542,1.542,0,0,1,0-1.946c.918-1.065,1.579-.771,1.762-1.065Zm-.4-3.286a4.57,4.57,0,0,1-.422,1.836,3.671,3.671,0,0,1-1.267.844,1.487,1.487,0,0,1,.092-1.836C33.985,14.144,34.628,14.346,34.793,14.144Zm0-3.671a4.7,4.7,0,0,1-.422,1.945,3.671,3.671,0,0,1-1.267.827,1.468,1.468,0,0,1,.092-1.836c.789-.936,1.432-.642,1.6-.936Zm-.385-3.029a4.056,4.056,0,0,1-.367,1.67,3.175,3.175,0,0,1-1.065.7,1.267,1.267,0,0,1,0-1.579c.734-.771,1.285-.532,1.432-.771Zm-2.239,15.29-.128.2a.679.679,0,0,0-.5-.294H31.4a.716.716,0,0,0-.459.312l-.147-.22c-.624-2.148.385-3.029.642-3.212.312.128,1.358,1.083.734,3.231Zm0-3.891a.551.551,0,0,1-.11.165.624.624,0,0,0-.459-.257H31.47a.551.551,0,0,0-.441.275l-.147-.2c-.569-2.019.367-2.863.624-3.01.239.165,1.248,1.028.661,3.047Zm0-3.781-.11.184a.551.551,0,0,0-.422-.257h-.128a.606.606,0,0,0-.4.257l-.128-.184c-.551-1.836.33-2.68.569-2.827a2.439,2.439,0,0,1,.587,2.845Zm0-3.671a.808.808,0,0,1-.11.184.477.477,0,0,0-.4-.239h-.128a.514.514,0,0,0-.385.239l-.128-.184c-.514-1.836.33-2.533.551-2.68a2.564,2.564,0,0,1,.551,2.772Zm0-3.469a.808.808,0,0,1-.11.184.5.5,0,0,0-.385-.239h-.092a.5.5,0,0,0-.367.257,1.3,1.3,0,0,1-.128-.2c-.477-1.836.312-2.717.514-2.882a3.179,3.179,0,0,1,.477,2.974ZM31.507,19.651ZM31.507,19.651ZM7.425,40.264a6.571,6.571,0,0,0-1.285.551,6.406,6.406,0,0,0,.367-1.285c.294-1.689,1.156-2.313,3.4-2.386a3.12,3.12,0,0,1-2.478,3.12Zm.918,4.662A3.506,3.506,0,0,1,8.728,48.6a5.727,5.727,0,0,0-.606-.753c-.367-.422-.753-.844-.716-1.267a1.946,1.946,0,0,1,.569-1.23,4.46,4.46,0,0,0,.367-.422Zm3.1-.844a6.259,6.259,0,0,0-1.707.973,5.176,5.176,0,0,0-.569-1.3,2.57,2.57,0,0,1,.7-3.322l.459-.587A5.213,5.213,0,0,0,12,41.31a9.049,9.049,0,0,1,1.285.973A3.267,3.267,0,0,1,11.445,44.081ZM9.408,46.266ZM7.278,44.081a7.507,7.507,0,0,1-.716,1.01l-.165.184a2.882,2.882,0,0,1-.349-2.331A2.845,2.845,0,0,1,7.609,41.4a3.487,3.487,0,0,0-.2,1.432,1.707,1.707,0,0,1-.128,1.248Zm13.454-1.065a2.992,2.992,0,0,0,.128-1.45A2.827,2.827,0,0,1,22.018,43.4a2.863,2.863,0,0,1-.808,2.184l-.092-.239a6.076,6.076,0,0,1-.477-1.138A1.836,1.836,0,0,1,20.733,43.017Zm-6.571.606a5.029,5.029,0,0,0,2.056,1.689,2.827,2.827,0,0,1-1.34,1.67,3.671,3.671,0,0,0-.863.753,3.671,3.671,0,0,0-.808-.808,2.882,2.882,0,0,1-1.23-1.836,5.286,5.286,0,0,0,2.2-1.468Zm1.56-3.212a4.974,4.974,0,0,0-1.505,1.1A4.479,4.479,0,0,0,12.8,40.3l-.275-.165a2.625,2.625,0,0,1-1.3-3.194,5.91,5.91,0,0,0,3.212-1.505,5.8,5.8,0,0,0,3.1,1.725A2.662,2.662,0,0,1,16,40.264Zm-3.506,7.342A5.139,5.139,0,0,1,9.793,49.4a3.671,3.671,0,0,0,.624-2,3.432,3.432,0,0,1,.385-1.487,3.506,3.506,0,0,0,1.432,1.817Zm3.322,1.615c.4.459.4.459,0,.936a6.479,6.479,0,0,1-1.634,1.23,6.957,6.957,0,0,1-1.523-1.34c-.385-.5-.385-.5,0-.936l.771-.716a3.8,3.8,0,0,1,.624.826l.184.4.2-.385a3.855,3.855,0,0,1,.679-.771,8.533,8.533,0,0,1,.716.734Zm6.81-7.966a7.085,7.085,0,0,0-1.248-.661,3.139,3.139,0,0,1-2.2-3.286c2.239.239,3.065.9,3.249,2.625a8.59,8.59,0,0,0,.22,1.3ZM14.272,31.949Zm6.461,15.125c0,.422-.422.826-.808,1.211A4.35,4.35,0,0,0,19.3,49a3.4,3.4,0,0,1,.624-3.671,4.277,4.277,0,0,0,.312.477,1.982,1.982,0,0,1,.5,1.267Zm-3.065.569a3.359,3.359,0,0,0,.477,2.037,5.507,5.507,0,0,1-2.313-1.836A3.506,3.506,0,0,0,17.374,46.1a3.524,3.524,0,0,1,.275,1.542ZM19.154,44.1a7.067,7.067,0,0,0-.642,1.248,7.03,7.03,0,0,0-1.652-1.1,3.157,3.157,0,0,1-1.689-1.836,8.9,8.9,0,0,1,1.34-.881,5.892,5.892,0,0,0,1.836-1.358c.11.2.275.385.422.606a2.588,2.588,0,0,1,.459,3.359Zm-.4,2.533v.092ZM56.6,39.621a6.241,6.241,0,0,0,.367,1.267,8.187,8.187,0,0,0-1.3-.551,3.157,3.157,0,0,1-2.478-3.12c2.239.092,3.1.789,3.4,2.4Zm-1.487,5.837a2.056,2.056,0,0,1,.587,1.23,2.232,2.232,0,0,1-.734,1.267,7.158,7.158,0,0,0-.587.771,3.451,3.451,0,0,1,.385-3.671,3.322,3.322,0,0,0,.33.4Zm-1.175-1.67a6.37,6.37,0,0,0-.569,1.3,7.2,7.2,0,0,0-1.707-.991,3.175,3.175,0,0,1-1.836-1.836,7.856,7.856,0,0,1,1.285-.973,5.69,5.69,0,0,0,1.67-1.468,6.388,6.388,0,0,0,.477.551,2.588,2.588,0,0,1,.661,3.414ZM53.68,46.394Zm3.01-1.046a2.293,2.293,0,0,1-.165-.22,6.112,6.112,0,0,1-.734-.973,1.836,1.836,0,0,1-.184-1.248,3.4,3.4,0,0,0-.2-1.432,2.606,2.606,0,0,1,1.285,3.873Zm-14.5-3.671a3.432,3.432,0,0,0,.128,1.432,1.836,1.836,0,0,1,.128,1.267,7.342,7.342,0,0,1-.477,1.138l-.11.239a2.588,2.588,0,0,1,.33-4.075Zm6.718,2.056a5.176,5.176,0,0,0,2.184,1.523,2.79,2.79,0,0,1-1.23,1.836,4.809,4.809,0,0,0-.808.808,4.791,4.791,0,0,0-.863-.753,2.753,2.753,0,0,1-1.34-1.67,5.121,5.121,0,0,0,2.056-1.762Zm1.358-3.322A4.736,4.736,0,0,0,48.834,41.6a4.571,4.571,0,0,0-1.487-1.083l-.294-.165a2.625,2.625,0,0,1-1.523-3.084,5.947,5.947,0,0,0,3.1-1.744,5.929,5.929,0,0,0,3.212,1.523,2.625,2.625,0,0,1-1.322,3.194ZM52.652,47.5a3.543,3.543,0,0,0,.624,2,5.176,5.176,0,0,1-2.423-1.652,3.671,3.671,0,0,0,1.413-1.836,3.561,3.561,0,0,1,.385,1.468Zm-1.964,1.836c.441.441.441.441,0,.936a6.186,6.186,0,0,1-1.523,1.322,6.7,6.7,0,0,1-1.615-1.211c-.4-.477-.4-.477,0-.936l.716-.789a3.965,3.965,0,0,1,.679.808l.22.367.184-.385a3.084,3.084,0,0,1,.624-.826c.257.275.587.569.716.716ZM41.97,40.814a6.021,6.021,0,0,0-1.248.642,10.905,10.905,0,0,0,.257-1.3c.165-1.707.991-2.386,3.231-2.606a3.139,3.139,0,0,1-2.239,3.267ZM43.181,45.4a3.414,3.414,0,0,1,.642,3.671,7.6,7.6,0,0,0-.642-.7c-.4-.4-.808-.808-.808-1.211a1.836,1.836,0,0,1,.477-1.267,2.331,2.331,0,0,0,.33-.551Zm4.093,2.533a5.507,5.507,0,0,1-2.294,1.836,3.671,3.671,0,0,0,.459-2.056,3.671,3.671,0,0,1,.294-1.523A3.506,3.506,0,0,0,47.274,47.936Zm-1.046-3.671a6.479,6.479,0,0,0-1.634,1.1,6.461,6.461,0,0,0-.642-1.248,2.588,2.588,0,0,1,.459-3.377c.147-.2.312-.4.422-.587a5.507,5.507,0,0,0,1.836,1.34,8.113,8.113,0,0,1,1.34.9,3.084,3.084,0,0,1-1.78,1.946Zm-4.956,7.764c-.33-.532-.661-1.065-1.01-1.6s-.4-.679-.624-1.01L37,45.348l-2.5-4.02c-.312-.5-.606-1.028-.918-1.542s-.367-.734-.569-1.12a2.423,2.423,0,0,1-.184-2.606l.11-.257h.128c.991.165,1.267,1.34,2.184,1.634a.606.606,0,0,0-.184-.624s-.11-.184,0-.257A6.718,6.718,0,0,0,36.9,37.2a1.836,1.836,0,0,0,1.267,0l-.128-.239a.734.734,0,0,0-.477-.257c-.128-.092-.294-.22-.22-.4a9.178,9.178,0,0,0,2.368-.275c.147,0,.385,0,.441-.239a2.239,2.239,0,0,0-.991-.844c-.2-.092,0-.257,0-.349a3.91,3.91,0,0,0,2.056-1.211c-.184-.642-.881-.844-1.45-1.028-.275-.184-.679,0-.954-.2,0-.349.514-.587.587-.936a3.3,3.3,0,0,0-1.285-.092c-.294,0-.514.22-.753.184a.239.239,0,0,0,0,.092v-.092a.367.367,0,0,1-.147,0,2.753,2.753,0,0,0,.184-.587h-.147l-1.01.294a6.736,6.736,0,0,1,6.186-2.918,6.057,6.057,0,0,1,3.543,1.3,8.333,8.333,0,0,1,2.46,3.1,3.947,3.947,0,0,0-1.12-.165c-1.964,0-3.983,1.487-6.131,4.589a12.261,12.261,0,0,1,2.918-.679,5.91,5.91,0,0,0,4.277-2.423l.165-.275.2.257a5.819,5.819,0,0,0,4.405,2.129,12.977,12.977,0,0,1,2.992.459c-2.606-3.212-4.882-4.515-7.048-4.038a.349.349,0,0,0,0-.147,7.085,7.085,0,0,0-2.037-4.13,6.388,6.388,0,0,0-2.037-1.358,7.342,7.342,0,0,0-2.386-.551,8.59,8.59,0,0,0-2.4.2A7.672,7.672,0,0,0,38,27.342a6.534,6.534,0,0,0-2.68,3.671v.147a18.888,18.888,0,0,0-1.67,1.542c-.2,0-.5.092-.587-.128a1.516,1.516,0,0,1,0-.642c.477-.826,1.579-1.34,1.836-2.239.22-.569-.606-.128-.808-.33a3.8,3.8,0,0,0,.477-1.542.918.918,0,0,0,0-.5c-.33,0-.477.367-.808.367s.11-.532,0-.863A1.835,1.835,0,0,0,33.49,25.8c-.22.147-.33.441-.624.477a.4.4,0,0,1,0-.294,5.25,5.25,0,0,0-1.083-2.019.679.679,0,0,0-.312.294,4.185,4.185,0,0,0-.826,1.836c-.477.679-.532-.5-1.065-.312a5.507,5.507,0,0,0,.184,2.386s-.11.184-.22.128-.532-.422-.844-.4,0,.7,0,.789.551.808.367,1.028-.5,0-.679.275c0,1.12,1.542,1.505,2.111,2.423a.477.477,0,0,1-.11.514.5.5,0,0,1-.422,0c-.441-.33-.606-.808-1.028-1.211a4.442,4.442,0,0,0-.771-.532.55.55,0,0,0,0-.184v-.184a6.736,6.736,0,0,0-2.643-3.561,7.672,7.672,0,0,0-2.221-.973,8.59,8.59,0,0,0-2.57-.037,7.342,7.342,0,0,0-2.386.551,6.388,6.388,0,0,0-2.037,1.358,6.9,6.9,0,0,0-2.019,4.093v.128h0c-2.294-.734-4.681.551-7.342,3.965a12.023,12.023,0,0,1,2.974-.459,5.929,5.929,0,0,0,4.424-2.129l.184-.275.165.275a6,6,0,0,0,4.2,2.423,12.61,12.61,0,0,1,2.937.661c-2.4-3.451-4.626-4.9-6.865-4.5A8.792,8.792,0,0,1,17.3,29.2a6.112,6.112,0,0,1,3.543-1.3,7.232,7.232,0,0,1,3.763.753,7.452,7.452,0,0,1,2.533,2.276h-.092c.092.275.294.624.092.9a5.6,5.6,0,0,1-.973-.367,2.872,2.872,0,0,0-1.12,0c.11.147.147.312.257.4s0,.275-.147.385a2.074,2.074,0,0,0-.954,0c-.22.147-.587,0-.716.257a1.836,1.836,0,0,1,.422.532v.184a3.91,3.91,0,0,0-2.019.863c0,.257.239.477.349.642a2.349,2.349,0,0,0,1.45.7c.092,0,.092.184.147.239s-.679.5-.716.844a1.946,1.946,0,0,0,.789,0c.569.092,1.046-.5,1.56-.092s-.477.459-.587.844a3.671,3.671,0,0,0,2.515-.569c.312-.11.587-.459.936-.349,0,.349-.312.642-.239,1.083a2.863,2.863,0,0,0,1.285-.661c.606-.294.808-1.211,1.505-1.23a1.835,1.835,0,0,0,.184.441,2.331,2.331,0,0,1,0,2.221v-.128l-.128.239a1.1,1.1,0,0,1-.11.2c-.2.385-.349.771-.551,1.12s-.606,1.046-.936,1.542l-2.478,4.185-2.625,4.2-.642,1.01L22.476,52.3a5.507,5.507,0,0,0-2.092,3.231,1.01,1.01,0,0,1,1.01,0c.367.22.679.422.936.551l.808.532,1.413.9c.5.294,1.23-.11,1.67-.863a1.67,1.67,0,0,0,.128-1.615.551.551,0,0,0-.165-.239l-1.12-.7-.165-.863-.422-2.166,6.645-10.518V53.865c0,.073-.753,3.1-.881,4.167a.239.239,0,0,1,0,.11v3.047a.551.551,0,0,0,.551.532H32.9a.532.532,0,0,0,.551-.532v-3.1c-.147-1.065-.918-4.148-.918-4.148v-13.4l6.626,10.518-.4,2.166-.165.863-1.12.7a.477.477,0,0,0-.184.239,1.652,1.652,0,0,0,.11,1.634c.441.753,1.175,1.156,1.67.863l1.395-.9.808-.532c.257-.128.569-.33.954-.551a.991.991,0,0,1,.7-.11,1.321,1.321,0,0,0,.33.22l.2.147v-.257A5.341,5.341,0,0,0,41.272,52.1Zm-16.52,1.615-1.193-.771.753-1.358ZM32.095,34.9h-.532a5.8,5.8,0,0,1-.587,0h-.367c-.367.312-.789.551-.918,1.01a.11.11,0,0,1-.165,0,.808.808,0,0,1,0-.881l.147-.165c-.239-.2-.422-.092-.753-.147-.367.441-.918,1.267-1.579,1.175,0,0-.165-.2,0-.257a1.734,1.734,0,0,0,.844-.863,8.223,8.223,0,0,0-1.836,0c-.239.294-.312.863-.808.716-.2-.239,0-.4,0-.7a4.662,4.662,0,0,0-1.065.147c-.165,0-.532.165-.661-.11a.265.265,0,0,1,.22-.4,3.555,3.555,0,0,0,1.193-.184c0-.11-.294-.257-.275-.4.4-.294.569.257.826.257h1.211c0-.128-.147-.257-.2-.367s-.5-.22-.606-.514c.2-.312.606,0,.844.147l.7.734c.349,0,.4.092.734,0-.11-.385-.459-.7-.569-1.01s.532,0,.642.239a5.506,5.506,0,0,0,.459.789l.11.092,2.533.257-.147-1.927a1.45,1.45,0,0,1-.716-1.395v-.128h.092c.184.33.294.753.661.881a6.883,6.883,0,0,0,0-.881c-.4-.349-1.358-.863-.863-1.432.2.11.312.4.514.587l.294.2a6.149,6.149,0,0,0-.092-1.3c-.33-.33-.9-.4-1.175-.808,0-.092,0-.312.128-.349s.642.514,1.028.606a23.66,23.66,0,0,0,0-2.551c.11-.257.385,0,.422,0,.11.7,0,1.487.11,2.239.312-.2.441-.7.808-.9h.184c.037,0,0,.22,0,.22-.275.5-.642.991-.954,1.45a6.314,6.314,0,0,0,.092,1.322,1.285,1.285,0,0,0,.624-.587c.239-.312.385-.7.606-.973h.092a1.964,1.964,0,0,1-.349,1.248,2.955,2.955,0,0,1-.918.789,2.837,2.837,0,0,0,0,.881c.257-.092.4-.4.679-.441s0,.294,0,.422l-.532.7c.11.716,0,1.468.165,2.184h.606a1.579,1.579,0,0,1,.642-.789h.239c.147.367-.459.4-.257.789a2.368,2.368,0,0,0,.642-.184,3.084,3.084,0,0,1,1.23-1.615h.11v.2a2.606,2.606,0,0,0-.7,1.211c.551-.257,1.193-.11,1.634-.808s.716-1.065,1.34-1.028c.092.184-.165.33-.275.422a1.94,1.94,0,0,0-.624.881,13.217,13.217,0,0,1,2.111-.239c.11,0,.239.312.147.385a7.636,7.636,0,0,0-1.487.22.957.957,0,0,0-.606.128c.22.349.716.422.734.881s-.275,0-.422,0a11.159,11.159,0,0,0-1.138-.606,4.332,4.332,0,0,0-1.138.33c.147.4.863.5.514.973a3.047,3.047,0,0,1-1.285-.771.918.918,0,0,0-.551.147c0,.22.2.22.165.422s-.11.184-.275.128A3.487,3.487,0,0,1,33.214,35H31.893Zm7.214,18.741.441-2.129.753,1.358Z" transform="translate(4.965 4.211)"/></g></svg>