<svg xmlns="http://www.w3.org/2000/svg" width="1925" height="24" viewBox="0 0 1925 24">
  <g id="Group_7156" data-name="Group 7156" transform="translate(12675 21239)">
    <path id="Union_2" data-name="Union 2" d="M1898.271,4.6c-2.143-1.584-4.163-3.068-8.271-3.068V0c4.646,0,6.977,1.733,9.237,3.4,2.142,1.584,4.163,3.082,8.271,3.082s6.128-1.5,8.27-3.082c2.245-1.665,4.577-3.4,9.222-3.4V1.534c-4.111,0-6.128,1.484-8.271,3.068-2.245,1.683-4.576,3.4-9.221,3.4S1900.531,6.285,1898.271,4.6Zm-35,0c-2.143-1.584-4.163-3.068-8.271-3.068V0c4.646,0,6.977,1.733,9.237,3.4,2.142,1.584,4.163,3.082,8.271,3.082s6.128-1.5,8.27-3.082c2.245-1.665,4.577-3.4,9.222-3.4V1.534c-4.111,0-6.128,1.484-8.271,3.068-2.245,1.683-4.576,3.4-9.221,3.4S1865.531,6.285,1863.271,4.6Zm-35,0c-2.143-1.584-4.163-3.068-8.271-3.068V0c4.646,0,6.977,1.733,9.237,3.4,2.143,1.584,4.163,3.082,8.271,3.082s6.128-1.5,8.27-3.082c2.246-1.665,4.577-3.4,9.222-3.4V1.534c-4.111,0-6.128,1.484-8.271,3.068-2.246,1.683-4.576,3.4-9.221,3.4S1830.531,6.285,1828.271,4.6Zm-35,0c-2.142-1.584-4.163-3.068-8.271-3.068V0c4.647,0,6.977,1.733,9.237,3.4,2.143,1.584,4.163,3.082,8.271,3.082s6.128-1.5,8.271-3.082c2.245-1.665,4.576-3.4,9.221-3.4V1.534c-4.111,0-6.128,1.484-8.27,3.068-2.246,1.683-4.577,3.4-9.222,3.4S1795.531,6.285,1793.271,4.6Zm-35,0c-2.142-1.584-4.163-3.068-8.271-3.068V0c4.647,0,6.977,1.733,9.237,3.4,2.143,1.584,4.163,3.082,8.271,3.082s6.128-1.5,8.271-3.082c2.245-1.665,4.576-3.4,9.221-3.4V1.534c-4.111,0-6.128,1.484-8.27,3.068-2.245,1.683-4.576,3.4-9.222,3.4S1760.531,6.285,1758.271,4.6Zm-35,0c-2.142-1.584-4.162-3.068-8.27-3.068V0c4.646,0,6.976,1.733,9.237,3.4,2.142,1.584,4.162,3.082,8.27,3.082s6.128-1.5,8.271-3.082c2.245-1.665,4.576-3.4,9.221-3.4V1.534c-4.111,0-6.128,1.484-8.27,3.068-2.245,1.683-4.576,3.4-9.222,3.4S1725.531,6.285,1723.271,4.6Zm-35,0c-2.142-1.584-4.162-3.068-8.27-3.068V0c4.646,0,6.976,1.733,9.237,3.4,2.142,1.584,4.162,3.082,8.27,3.082s6.129-1.5,8.271-3.082c2.245-1.665,4.576-3.4,9.222-3.4V1.534c-4.112,0-6.129,1.484-8.271,3.068-2.246,1.683-4.576,3.4-9.222,3.4S1690.531,6.285,1688.27,4.6Zm-35,0c-2.142-1.584-4.163-3.068-8.27-3.068V0c4.646,0,6.976,1.733,9.237,3.4,2.142,1.584,4.162,3.082,8.27,3.082s6.129-1.5,8.271-3.082c2.245-1.665,4.576-3.4,9.222-3.4V1.534c-4.112,0-6.129,1.484-8.271,3.068-2.245,1.683-4.576,3.4-9.222,3.4S1655.531,6.285,1653.27,4.6Zm-35,0c-2.142-1.584-4.162-3.068-8.27-3.068V0c4.646,0,6.976,1.733,9.237,3.4,2.142,1.584,4.162,3.082,8.27,3.082s6.129-1.5,8.271-3.082c2.245-1.665,4.577-3.4,9.222-3.4V1.534c-4.111,0-6.128,1.484-8.271,3.068-2.245,1.683-4.576,3.4-9.222,3.4S1620.531,6.285,1618.27,4.6Zm-35,0c-2.143-1.584-4.163-3.068-8.271-3.068V0c4.646,0,6.977,1.733,9.237,3.4,2.142,1.584,4.163,3.082,8.271,3.082s6.128-1.5,8.27-3.082c2.245-1.665,4.577-3.4,9.222-3.4V1.534c-4.111,0-6.128,1.484-8.271,3.068-2.245,1.683-4.576,3.4-9.221,3.4S1585.531,6.285,1583.271,4.6Zm-35,0c-2.143-1.584-4.163-3.068-8.271-3.068V0c4.646,0,6.977,1.733,9.237,3.4,2.142,1.584,4.163,3.082,8.271,3.082s6.128-1.5,8.27-3.082c2.245-1.665,4.577-3.4,9.222-3.4V1.534c-4.111,0-6.128,1.484-8.271,3.068-2.245,1.683-4.576,3.4-9.221,3.4S1550.531,6.285,1548.271,4.6Zm-35,0c-2.143-1.584-4.163-3.068-8.271-3.068V0c4.646,0,6.977,1.733,9.237,3.4,2.143,1.584,4.163,3.082,8.271,3.082s6.128-1.5,8.27-3.082c2.246-1.665,4.577-3.4,9.222-3.4V1.534c-4.111,0-6.128,1.484-8.271,3.068-2.245,1.683-4.576,3.4-9.221,3.4S1515.531,6.285,1513.271,4.6Zm-35,0c-2.142-1.584-4.163-3.068-8.271-3.068V0c4.647,0,6.977,1.733,9.237,3.4,2.143,1.584,4.163,3.082,8.271,3.082s6.128-1.5,8.271-3.082c2.245-1.665,4.576-3.4,9.221-3.4V1.534c-4.111,0-6.128,1.484-8.27,3.068-2.246,1.683-4.577,3.4-9.222,3.4S1480.531,6.285,1478.271,4.6Zm-35,0c-2.142-1.584-4.163-3.068-8.271-3.068V0c4.647,0,6.977,1.733,9.237,3.4,2.143,1.584,4.163,3.082,8.271,3.082s6.128-1.5,8.271-3.082c2.245-1.665,4.576-3.4,9.221-3.4V1.534c-4.111,0-6.128,1.484-8.27,3.068-2.245,1.683-4.577,3.4-9.222,3.4S1445.531,6.285,1443.271,4.6Zm-35,0c-2.142-1.584-4.162-3.068-8.27-3.068V0c4.646,0,6.976,1.733,9.237,3.4,2.142,1.584,4.162,3.082,8.27,3.082s6.128-1.5,8.271-3.082c2.245-1.665,4.576-3.4,9.221-3.4V1.534c-4.111,0-6.128,1.484-8.27,3.068-2.245,1.683-4.576,3.4-9.222,3.4S1410.531,6.285,1408.271,4.6Zm-35,0c-2.142-1.584-4.162-3.068-8.27-3.068V0c4.646,0,6.976,1.733,9.237,3.4,2.142,1.584,4.162,3.082,8.27,3.082s6.129-1.5,8.271-3.082c2.246-1.665,4.576-3.4,9.222-3.4V1.534c-4.112,0-6.129,1.484-8.271,3.068-2.246,1.683-4.576,3.4-9.222,3.4S1375.531,6.285,1373.27,4.6Zm-35,0c-2.142-1.584-4.163-3.068-8.27-3.068V0c4.646,0,6.976,1.733,9.237,3.4,2.142,1.584,4.162,3.082,8.27,3.082s6.129-1.5,8.271-3.082c2.245-1.665,4.576-3.4,9.222-3.4V1.534c-4.112,0-6.129,1.484-8.271,3.068-2.245,1.683-4.576,3.4-9.222,3.4S1340.531,6.285,1338.27,4.6Zm-35,0c-2.142-1.584-4.162-3.068-8.27-3.068V0c4.646,0,6.976,1.733,9.237,3.4,2.142,1.584,4.162,3.082,8.27,3.082s6.129-1.5,8.271-3.082c2.245-1.665,4.577-3.4,9.222-3.4V1.534c-4.111,0-6.128,1.484-8.271,3.068-2.245,1.683-4.576,3.4-9.222,3.4S1305.531,6.285,1303.27,4.6Zm-35,0c-2.143-1.584-4.163-3.068-8.271-3.068V0c4.646,0,6.977,1.733,9.237,3.4,2.142,1.584,4.163,3.082,8.271,3.082s6.128-1.5,8.27-3.082c2.245-1.665,4.577-3.4,9.222-3.4V1.534c-4.111,0-6.128,1.484-8.271,3.068-2.245,1.683-4.576,3.4-9.221,3.4S1270.531,6.285,1268.271,4.6Zm-35,0c-2.143-1.584-4.163-3.068-8.271-3.068V0c4.646,0,6.977,1.733,9.237,3.4,2.142,1.584,4.163,3.082,8.271,3.082s6.128-1.5,8.27-3.082c2.245-1.665,4.577-3.4,9.222-3.4V1.534c-4.111,0-6.128,1.484-8.271,3.068-2.245,1.683-4.576,3.4-9.221,3.4S1235.531,6.285,1233.271,4.6Zm-35,0c-2.143-1.584-4.163-3.068-8.271-3.068V0c4.646,0,6.977,1.733,9.237,3.4,2.143,1.584,4.163,3.082,8.271,3.082s6.128-1.5,8.27-3.082c2.245-1.665,4.577-3.4,9.222-3.4V1.534c-4.111,0-6.128,1.484-8.271,3.068-2.245,1.683-4.576,3.4-9.221,3.4S1200.531,6.285,1198.271,4.6Zm-35,0c-2.142-1.584-4.163-3.068-8.271-3.068V0c4.647,0,6.977,1.733,9.237,3.4,2.143,1.584,4.163,3.082,8.271,3.082s6.128-1.5,8.271-3.082c2.245-1.665,4.576-3.4,9.221-3.4V1.534c-4.111,0-6.128,1.484-8.27,3.068-2.246,1.683-4.577,3.4-9.222,3.4S1165.531,6.285,1163.271,4.6Zm-35,0c-2.142-1.584-4.163-3.068-8.271-3.068V0c4.647,0,6.977,1.733,9.237,3.4,2.143,1.584,4.163,3.082,8.271,3.082s6.128-1.5,8.271-3.082c2.245-1.665,4.576-3.4,9.221-3.4V1.534c-4.111,0-6.128,1.484-8.27,3.068-2.245,1.683-4.577,3.4-9.222,3.4S1130.531,6.285,1128.271,4.6Zm-35,0c-2.142-1.584-4.162-3.068-8.27-3.068V0c4.646,0,6.976,1.733,9.237,3.4,2.142,1.584,4.162,3.082,8.27,3.082s6.128-1.5,8.271-3.082c2.245-1.665,4.576-3.4,9.221-3.4V1.534c-4.111,0-6.128,1.484-8.27,3.068-2.245,1.683-4.576,3.4-9.222,3.4S1095.531,6.285,1093.271,4.6Zm-35,0c-2.142-1.584-4.162-3.068-8.27-3.068V0c4.646,0,6.976,1.733,9.237,3.4,2.142,1.584,4.162,3.082,8.27,3.082s6.129-1.5,8.271-3.082c2.246-1.665,4.576-3.4,9.222-3.4V1.534c-4.112,0-6.129,1.484-8.271,3.068-2.245,1.683-4.576,3.4-9.222,3.4S1060.531,6.285,1058.27,4.6Zm-35,0c-2.142-1.584-4.162-3.068-8.27-3.068V0c4.646,0,6.976,1.733,9.237,3.4,2.142,1.584,4.162,3.082,8.27,3.082s6.129-1.5,8.271-3.082c2.245-1.665,4.576-3.4,9.222-3.4V1.534c-4.112,0-6.129,1.484-8.271,3.068-2.246,1.683-4.576,3.4-9.222,3.4S1025.531,6.285,1023.27,4.6Zm-35,0c-2.142-1.584-4.162-3.068-8.27-3.068V0c4.646,0,6.976,1.733,9.237,3.4,2.142,1.584,4.163,3.082,8.271,3.082s6.128-1.5,8.27-3.082c2.245-1.665,4.576-3.4,9.222-3.4V1.534c-4.111,0-6.128,1.484-8.271,3.068-2.246,1.683-4.576,3.4-9.221,3.4S990.531,6.285,988.27,4.6Zm-35,0c-2.143-1.584-4.163-3.068-8.271-3.068V0c4.646,0,6.977,1.733,9.237,3.4,2.142,1.584,4.163,3.082,8.271,3.082s6.128-1.5,8.27-3.082C973.023,1.733,975.354,0,980,0V1.534c-4.111,0-6.128,1.484-8.271,3.068-2.245,1.683-4.576,3.4-9.221,3.4S955.531,6.285,953.271,4.6Zm-35,0c-2.143-1.584-4.163-3.068-8.271-3.068V0c4.646,0,6.977,1.733,9.237,3.4,2.142,1.584,4.163,3.082,8.271,3.082s6.128-1.5,8.27-3.082C938.023,1.733,940.354,0,945,0V1.534c-4.111,0-6.128,1.484-8.271,3.068-2.245,1.683-4.576,3.4-9.221,3.4S920.531,6.285,918.271,4.6Zm-35,0c-2.143-1.584-4.163-3.068-8.271-3.068V0c4.646,0,6.977,1.733,9.237,3.4,2.143,1.584,4.163,3.082,8.271,3.082s6.128-1.5,8.27-3.082C903.024,1.733,905.354,0,910,0V1.534c-4.111,0-6.128,1.484-8.271,3.068-2.246,1.683-4.576,3.4-9.221,3.4S885.531,6.285,883.271,4.6Zm-35,0c-2.142-1.584-4.163-3.068-8.271-3.068V0c4.647,0,6.977,1.733,9.237,3.4,2.143,1.584,4.163,3.082,8.271,3.082s6.128-1.5,8.271-3.082C868.024,1.733,870.354,0,875,0V1.534c-4.111,0-6.128,1.484-8.27,3.068-2.246,1.683-4.577,3.4-9.222,3.4S850.531,6.285,848.271,4.6Zm-35,0c-2.142-1.584-4.163-3.068-8.271-3.068V0c4.647,0,6.977,1.733,9.237,3.4,2.143,1.584,4.163,3.082,8.271,3.082s6.128-1.5,8.271-3.082C833.024,1.733,835.354,0,840,0V1.534c-4.111,0-6.128,1.484-8.27,3.068-2.245,1.683-4.576,3.4-9.222,3.4S815.531,6.285,813.271,4.6Zm-35,0c-2.142-1.584-4.162-3.068-8.27-3.068V0c4.646,0,6.976,1.733,9.237,3.4,2.142,1.584,4.162,3.082,8.27,3.082s6.128-1.5,8.271-3.082C798.024,1.733,800.354,0,805,0V1.534c-4.111,0-6.128,1.484-8.27,3.068-2.245,1.683-4.576,3.4-9.222,3.4S780.531,6.285,778.271,4.6Zm-35,0c-2.142-1.584-4.163-3.068-8.27-3.068V0c4.646,0,6.976,1.733,9.237,3.4,2.142,1.584,4.163,3.082,8.27,3.082s6.129-1.5,8.271-3.082C763.024,1.733,765.354,0,770,0V1.534c-4.112,0-6.129,1.484-8.271,3.068-2.245,1.683-4.576,3.4-9.222,3.4S745.531,6.285,743.27,4.6Zm-35,0c-2.142-1.584-4.163-3.068-8.27-3.068V0c4.646,0,6.976,1.733,9.237,3.4,2.142,1.584,4.162,3.082,8.27,3.082s6.129-1.5,8.271-3.082C728.023,1.733,730.354,0,735,0V1.534c-4.112,0-6.129,1.484-8.271,3.068-2.245,1.683-4.576,3.4-9.222,3.4S710.531,6.285,708.27,4.6Zm-35,0c-2.142-1.584-4.162-3.068-8.27-3.068V0c4.646,0,6.976,1.733,9.237,3.4,2.142,1.584,4.162,3.082,8.271,3.082s6.128-1.5,8.27-3.082C693.023,1.733,695.354,0,700,0V1.534c-4.111,0-6.128,1.484-8.271,3.068-2.245,1.683-4.576,3.4-9.221,3.4S675.531,6.285,673.27,4.6Zm-35,0c-2.143-1.584-4.163-3.068-8.271-3.068V0c4.646,0,6.977,1.733,9.237,3.4,2.142,1.584,4.163,3.082,8.271,3.082s6.128-1.5,8.27-3.082C658.023,1.733,660.354,0,665,0V1.534c-4.111,0-6.128,1.484-8.271,3.068-2.245,1.683-4.576,3.4-9.221,3.4S640.531,6.285,638.271,4.6Zm-35,0c-2.143-1.584-4.163-3.068-8.271-3.068V0c4.646,0,6.977,1.733,9.237,3.4,2.142,1.584,4.163,3.082,8.271,3.082s6.128-1.5,8.27-3.082C623.023,1.733,625.354,0,630,0V1.534c-4.111,0-6.128,1.484-8.271,3.068-2.245,1.683-4.576,3.4-9.221,3.4S605.531,6.285,603.271,4.6Zm-35,0c-2.143-1.584-4.163-3.068-8.271-3.068V0c4.646,0,6.977,1.733,9.237,3.4,2.143,1.584,4.163,3.082,8.271,3.082s6.128-1.5,8.27-3.082C588.024,1.733,590.354,0,595,0V1.534c-4.111,0-6.128,1.484-8.27,3.068-2.246,1.683-4.576,3.4-9.222,3.4S570.531,6.285,568.271,4.6Zm-35,0c-2.142-1.584-4.163-3.068-8.271-3.068V0c4.647,0,6.977,1.733,9.237,3.4,2.143,1.584,4.163,3.082,8.271,3.082s6.128-1.5,8.271-3.082C553.024,1.733,555.354,0,560,0V1.534c-4.111,0-6.128,1.484-8.27,3.068-2.246,1.683-4.577,3.4-9.222,3.4S535.531,6.285,533.271,4.6Zm-35,0c-2.142-1.584-4.162-3.068-8.271-3.068V0c4.647,0,6.977,1.733,9.237,3.4,2.143,1.584,4.163,3.082,8.271,3.082s6.128-1.5,8.271-3.082C518.024,1.733,520.354,0,525,0V1.534c-4.111,0-6.128,1.484-8.27,3.068-2.245,1.683-4.576,3.4-9.222,3.4S500.531,6.285,498.271,4.6Zm-35,0c-2.142-1.584-4.163-3.068-8.27-3.068V0c4.646,0,6.976,1.733,9.237,3.4,2.142,1.584,4.162,3.082,8.27,3.082s6.128-1.5,8.271-3.082C483.024,1.733,485.354,0,490,0V1.534c-4.111,0-6.128,1.484-8.27,3.068-2.246,1.683-4.577,3.4-9.222,3.4S465.531,6.285,463.271,4.6Zm-35,0c-2.142-1.584-4.163-3.068-8.27-3.068V0c4.646,0,6.976,1.733,9.237,3.4,2.142,1.584,4.163,3.082,8.27,3.082s6.129-1.5,8.271-3.082C448.024,1.733,450.354,0,455,0V1.534c-4.112,0-6.129,1.484-8.271,3.068-2.245,1.683-4.576,3.4-9.222,3.4S430.531,6.285,428.27,4.6Zm-35,0c-2.142-1.584-4.163-3.068-8.27-3.068V0c4.646,0,6.976,1.733,9.237,3.4,2.142,1.584,4.163,3.082,8.27,3.082s6.129-1.5,8.271-3.082C413.023,1.733,415.354,0,420,0V1.534c-4.112,0-6.129,1.484-8.271,3.068-2.246,1.683-4.576,3.4-9.222,3.4S395.531,6.285,393.27,4.6Zm-35,0c-2.143-1.584-4.163-3.068-8.271-3.068V0c4.646,0,6.976,1.733,9.237,3.4,2.142,1.584,4.163,3.082,8.271,3.082s6.128-1.5,8.27-3.082C378.023,1.733,380.354,0,385,0V1.534c-4.111,0-6.128,1.484-8.271,3.068-2.246,1.683-4.576,3.4-9.221,3.4S360.531,6.285,358.271,4.6Zm-35,0c-2.143-1.584-4.163-3.068-8.271-3.068V0c4.646,0,6.977,1.733,9.237,3.4,2.142,1.584,4.163,3.082,8.271,3.082s6.128-1.5,8.27-3.082C343.023,1.733,345.354,0,350,0V1.534c-4.111,0-6.128,1.484-8.271,3.068-2.245,1.683-4.576,3.4-9.221,3.4S325.531,6.285,323.271,4.6Zm-35,0c-2.143-1.584-4.163-3.068-8.271-3.068V0c4.646,0,6.977,1.733,9.237,3.4,2.143,1.584,4.163,3.082,8.271,3.082s6.128-1.5,8.27-3.082C308.023,1.733,310.354,0,315,0V1.534c-4.111,0-6.128,1.484-8.271,3.068-2.245,1.683-4.576,3.4-9.221,3.4S290.531,6.285,288.271,4.6Zm-35,0c-2.143-1.584-4.163-3.068-8.271-3.068V0c4.646,0,6.977,1.733,9.237,3.4,2.143,1.584,4.163,3.082,8.271,3.082s6.128-1.5,8.27-3.082C273.024,1.733,275.354,0,280,0V1.534c-4.111,0-6.128,1.484-8.271,3.068-2.246,1.683-4.576,3.4-9.221,3.4S255.531,6.285,253.271,4.6Zm-35,0c-2.142-1.584-4.163-3.068-8.271-3.068V0c4.647,0,6.977,1.733,9.237,3.4,2.143,1.584,4.163,3.082,8.271,3.082s6.128-1.5,8.271-3.082C238.024,1.733,240.354,0,245,0V1.534c-4.111,0-6.128,1.484-8.27,3.068-2.245,1.683-4.577,3.4-9.222,3.4S220.531,6.285,218.271,4.6Zm-35,0c-2.142-1.584-4.162-3.068-8.271-3.068V0c4.647,0,6.977,1.733,9.237,3.4,2.143,1.584,4.163,3.082,8.271,3.082s6.128-1.5,8.271-3.082C203.024,1.733,205.354,0,210,0V1.534c-4.111,0-6.128,1.484-8.27,3.068-2.245,1.683-4.576,3.4-9.222,3.4S185.531,6.285,183.271,4.6Zm-35,0c-2.142-1.584-4.163-3.068-8.27-3.068V0c4.646,0,6.976,1.733,9.237,3.4,2.142,1.584,4.162,3.082,8.27,3.082s6.128-1.5,8.271-3.082C168.024,1.733,170.354,0,175,0V1.534c-4.111,0-6.128,1.484-8.27,3.068-2.245,1.683-4.577,3.4-9.222,3.4S150.531,6.285,148.271,4.6Zm-35,0c-2.142-1.584-4.162-3.068-8.27-3.068V0c4.646,0,6.976,1.733,9.237,3.4,2.142,1.584,4.163,3.082,8.27,3.082s6.129-1.5,8.271-3.082C133.024,1.733,135.354,0,140,0V1.534c-4.112,0-6.129,1.484-8.271,3.068-2.245,1.683-4.576,3.4-9.222,3.4S115.531,6.285,113.27,4.6Zm-35,0C76.128,3.018,74.108,1.534,70,1.534V0c4.646,0,6.976,1.733,9.237,3.4C81.379,4.982,83.4,6.48,87.507,6.48s6.129-1.5,8.271-3.082C98.024,1.733,100.354,0,105,0V1.534c-4.112,0-6.129,1.484-8.271,3.068C94.484,6.285,92.154,8,87.507,8S80.531,6.285,78.27,4.6Zm-35,0C41.128,3.018,39.108,1.534,35,1.534V0c4.646,0,6.976,1.733,9.237,3.4C46.379,4.982,48.4,6.48,52.508,6.48s6.128-1.5,8.27-3.082C63.023,1.733,65.354,0,70,0V1.534c-4.111,0-6.128,1.484-8.271,3.068C59.484,6.285,57.154,8,52.508,8S45.531,6.285,43.27,4.6Zm-35,0C6.128,3.018,4.108,1.534,0,1.534V0C4.646,0,6.977,1.733,9.237,3.4,11.379,4.982,13.4,6.48,17.508,6.48s6.128-1.5,8.27-3.082C28.023,1.733,30.354,0,35,0V1.534c-4.111,0-6.128,1.484-8.271,3.068C24.484,6.285,22.153,8,17.508,8S10.531,6.285,8.271,4.6Z" transform="translate(-12675 -21239)" fill="#fff"/>
    <path id="Union_4" data-name="Union 4" d="M1898.271,4.6c-2.143-1.584-4.163-3.068-8.271-3.068V0c4.646,0,6.977,1.733,9.237,3.4,2.142,1.584,4.163,3.082,8.271,3.082s6.128-1.5,8.27-3.082c2.245-1.665,4.577-3.4,9.222-3.4V1.534c-4.111,0-6.128,1.484-8.271,3.068-2.245,1.683-4.576,3.4-9.221,3.4S1900.531,6.285,1898.271,4.6Zm-35,0c-2.143-1.584-4.163-3.068-8.271-3.068V0c4.646,0,6.977,1.733,9.237,3.4,2.142,1.584,4.163,3.082,8.271,3.082s6.128-1.5,8.27-3.082c2.245-1.665,4.577-3.4,9.222-3.4V1.534c-4.111,0-6.128,1.484-8.271,3.068-2.245,1.683-4.576,3.4-9.221,3.4S1865.531,6.285,1863.271,4.6Zm-35,0c-2.143-1.584-4.163-3.068-8.271-3.068V0c4.646,0,6.977,1.733,9.237,3.4,2.143,1.584,4.163,3.082,8.271,3.082s6.128-1.5,8.27-3.082c2.246-1.665,4.577-3.4,9.222-3.4V1.534c-4.111,0-6.128,1.484-8.271,3.068-2.246,1.683-4.576,3.4-9.221,3.4S1830.531,6.285,1828.271,4.6Zm-35,0c-2.142-1.584-4.163-3.068-8.271-3.068V0c4.647,0,6.977,1.733,9.237,3.4,2.143,1.584,4.163,3.082,8.271,3.082s6.128-1.5,8.271-3.082c2.245-1.665,4.576-3.4,9.221-3.4V1.534c-4.111,0-6.128,1.484-8.27,3.068-2.246,1.683-4.577,3.4-9.222,3.4S1795.531,6.285,1793.271,4.6Zm-35,0c-2.142-1.584-4.163-3.068-8.271-3.068V0c4.647,0,6.977,1.733,9.237,3.4,2.143,1.584,4.163,3.082,8.271,3.082s6.128-1.5,8.271-3.082c2.245-1.665,4.576-3.4,9.221-3.4V1.534c-4.111,0-6.128,1.484-8.27,3.068-2.245,1.683-4.576,3.4-9.222,3.4S1760.531,6.285,1758.271,4.6Zm-35,0c-2.142-1.584-4.162-3.068-8.27-3.068V0c4.646,0,6.976,1.733,9.237,3.4,2.142,1.584,4.162,3.082,8.27,3.082s6.128-1.5,8.271-3.082c2.245-1.665,4.576-3.4,9.221-3.4V1.534c-4.111,0-6.128,1.484-8.27,3.068-2.245,1.683-4.576,3.4-9.222,3.4S1725.531,6.285,1723.271,4.6Zm-35,0c-2.142-1.584-4.162-3.068-8.27-3.068V0c4.646,0,6.976,1.733,9.237,3.4,2.142,1.584,4.162,3.082,8.27,3.082s6.129-1.5,8.271-3.082c2.245-1.665,4.576-3.4,9.222-3.4V1.534c-4.112,0-6.129,1.484-8.271,3.068-2.246,1.683-4.576,3.4-9.222,3.4S1690.531,6.285,1688.27,4.6Zm-35,0c-2.142-1.584-4.163-3.068-8.27-3.068V0c4.646,0,6.976,1.733,9.237,3.4,2.142,1.584,4.162,3.082,8.27,3.082s6.129-1.5,8.271-3.082c2.245-1.665,4.576-3.4,9.222-3.4V1.534c-4.112,0-6.129,1.484-8.271,3.068-2.245,1.683-4.576,3.4-9.222,3.4S1655.531,6.285,1653.27,4.6Zm-35,0c-2.142-1.584-4.162-3.068-8.27-3.068V0c4.646,0,6.976,1.733,9.237,3.4,2.142,1.584,4.162,3.082,8.27,3.082s6.129-1.5,8.271-3.082c2.245-1.665,4.577-3.4,9.222-3.4V1.534c-4.111,0-6.128,1.484-8.271,3.068-2.245,1.683-4.576,3.4-9.222,3.4S1620.531,6.285,1618.27,4.6Zm-35,0c-2.143-1.584-4.163-3.068-8.271-3.068V0c4.646,0,6.977,1.733,9.237,3.4,2.142,1.584,4.163,3.082,8.271,3.082s6.128-1.5,8.27-3.082c2.245-1.665,4.577-3.4,9.222-3.4V1.534c-4.111,0-6.128,1.484-8.271,3.068-2.245,1.683-4.576,3.4-9.221,3.4S1585.531,6.285,1583.271,4.6Zm-35,0c-2.143-1.584-4.163-3.068-8.271-3.068V0c4.646,0,6.977,1.733,9.237,3.4,2.142,1.584,4.163,3.082,8.271,3.082s6.128-1.5,8.27-3.082c2.245-1.665,4.577-3.4,9.222-3.4V1.534c-4.111,0-6.128,1.484-8.271,3.068-2.245,1.683-4.576,3.4-9.221,3.4S1550.531,6.285,1548.271,4.6Zm-35,0c-2.143-1.584-4.163-3.068-8.271-3.068V0c4.646,0,6.977,1.733,9.237,3.4,2.143,1.584,4.163,3.082,8.271,3.082s6.128-1.5,8.27-3.082c2.246-1.665,4.577-3.4,9.222-3.4V1.534c-4.111,0-6.128,1.484-8.271,3.068-2.245,1.683-4.576,3.4-9.221,3.4S1515.531,6.285,1513.271,4.6Zm-35,0c-2.142-1.584-4.163-3.068-8.271-3.068V0c4.647,0,6.977,1.733,9.237,3.4,2.143,1.584,4.163,3.082,8.271,3.082s6.128-1.5,8.271-3.082c2.245-1.665,4.576-3.4,9.221-3.4V1.534c-4.111,0-6.128,1.484-8.27,3.068-2.246,1.683-4.577,3.4-9.222,3.4S1480.531,6.285,1478.271,4.6Zm-35,0c-2.142-1.584-4.163-3.068-8.271-3.068V0c4.647,0,6.977,1.733,9.237,3.4,2.143,1.584,4.163,3.082,8.271,3.082s6.128-1.5,8.271-3.082c2.245-1.665,4.576-3.4,9.221-3.4V1.534c-4.111,0-6.128,1.484-8.27,3.068-2.245,1.683-4.577,3.4-9.222,3.4S1445.531,6.285,1443.271,4.6Zm-35,0c-2.142-1.584-4.162-3.068-8.27-3.068V0c4.646,0,6.976,1.733,9.237,3.4,2.142,1.584,4.162,3.082,8.27,3.082s6.128-1.5,8.271-3.082c2.245-1.665,4.576-3.4,9.221-3.4V1.534c-4.111,0-6.128,1.484-8.27,3.068-2.245,1.683-4.576,3.4-9.222,3.4S1410.531,6.285,1408.271,4.6Zm-35,0c-2.142-1.584-4.162-3.068-8.27-3.068V0c4.646,0,6.976,1.733,9.237,3.4,2.142,1.584,4.162,3.082,8.27,3.082s6.129-1.5,8.271-3.082c2.246-1.665,4.576-3.4,9.222-3.4V1.534c-4.112,0-6.129,1.484-8.271,3.068-2.246,1.683-4.576,3.4-9.222,3.4S1375.531,6.285,1373.27,4.6Zm-35,0c-2.142-1.584-4.163-3.068-8.27-3.068V0c4.646,0,6.976,1.733,9.237,3.4,2.142,1.584,4.162,3.082,8.27,3.082s6.129-1.5,8.271-3.082c2.245-1.665,4.576-3.4,9.222-3.4V1.534c-4.112,0-6.129,1.484-8.271,3.068-2.245,1.683-4.576,3.4-9.222,3.4S1340.531,6.285,1338.27,4.6Zm-35,0c-2.142-1.584-4.162-3.068-8.27-3.068V0c4.646,0,6.976,1.733,9.237,3.4,2.142,1.584,4.162,3.082,8.27,3.082s6.129-1.5,8.271-3.082c2.245-1.665,4.577-3.4,9.222-3.4V1.534c-4.111,0-6.128,1.484-8.271,3.068-2.245,1.683-4.576,3.4-9.222,3.4S1305.531,6.285,1303.27,4.6Zm-35,0c-2.143-1.584-4.163-3.068-8.271-3.068V0c4.646,0,6.977,1.733,9.237,3.4,2.142,1.584,4.163,3.082,8.271,3.082s6.128-1.5,8.27-3.082c2.245-1.665,4.577-3.4,9.222-3.4V1.534c-4.111,0-6.128,1.484-8.271,3.068-2.245,1.683-4.576,3.4-9.221,3.4S1270.531,6.285,1268.271,4.6Zm-35,0c-2.143-1.584-4.163-3.068-8.271-3.068V0c4.646,0,6.977,1.733,9.237,3.4,2.142,1.584,4.163,3.082,8.271,3.082s6.128-1.5,8.27-3.082c2.245-1.665,4.577-3.4,9.222-3.4V1.534c-4.111,0-6.128,1.484-8.271,3.068-2.245,1.683-4.576,3.4-9.221,3.4S1235.531,6.285,1233.271,4.6Zm-35,0c-2.143-1.584-4.163-3.068-8.271-3.068V0c4.646,0,6.977,1.733,9.237,3.4,2.143,1.584,4.163,3.082,8.271,3.082s6.128-1.5,8.27-3.082c2.245-1.665,4.577-3.4,9.222-3.4V1.534c-4.111,0-6.128,1.484-8.271,3.068-2.245,1.683-4.576,3.4-9.221,3.4S1200.531,6.285,1198.271,4.6Zm-35,0c-2.142-1.584-4.163-3.068-8.271-3.068V0c4.647,0,6.977,1.733,9.237,3.4,2.143,1.584,4.163,3.082,8.271,3.082s6.128-1.5,8.271-3.082c2.245-1.665,4.576-3.4,9.221-3.4V1.534c-4.111,0-6.128,1.484-8.27,3.068-2.246,1.683-4.577,3.4-9.222,3.4S1165.531,6.285,1163.271,4.6Zm-35,0c-2.142-1.584-4.163-3.068-8.271-3.068V0c4.647,0,6.977,1.733,9.237,3.4,2.143,1.584,4.163,3.082,8.271,3.082s6.128-1.5,8.271-3.082c2.245-1.665,4.576-3.4,9.221-3.4V1.534c-4.111,0-6.128,1.484-8.27,3.068-2.245,1.683-4.577,3.4-9.222,3.4S1130.531,6.285,1128.271,4.6Zm-35,0c-2.142-1.584-4.162-3.068-8.27-3.068V0c4.646,0,6.976,1.733,9.237,3.4,2.142,1.584,4.162,3.082,8.27,3.082s6.128-1.5,8.271-3.082c2.245-1.665,4.576-3.4,9.221-3.4V1.534c-4.111,0-6.128,1.484-8.27,3.068-2.245,1.683-4.576,3.4-9.222,3.4S1095.531,6.285,1093.271,4.6Zm-35,0c-2.142-1.584-4.162-3.068-8.27-3.068V0c4.646,0,6.976,1.733,9.237,3.4,2.142,1.584,4.162,3.082,8.27,3.082s6.129-1.5,8.271-3.082c2.246-1.665,4.576-3.4,9.222-3.4V1.534c-4.112,0-6.129,1.484-8.271,3.068-2.245,1.683-4.576,3.4-9.222,3.4S1060.531,6.285,1058.27,4.6Zm-35,0c-2.142-1.584-4.162-3.068-8.27-3.068V0c4.646,0,6.976,1.733,9.237,3.4,2.142,1.584,4.162,3.082,8.27,3.082s6.129-1.5,8.271-3.082c2.245-1.665,4.576-3.4,9.222-3.4V1.534c-4.112,0-6.129,1.484-8.271,3.068-2.246,1.683-4.576,3.4-9.222,3.4S1025.531,6.285,1023.27,4.6Zm-35,0c-2.142-1.584-4.162-3.068-8.27-3.068V0c4.646,0,6.976,1.733,9.237,3.4,2.142,1.584,4.163,3.082,8.271,3.082s6.128-1.5,8.27-3.082c2.245-1.665,4.576-3.4,9.222-3.4V1.534c-4.111,0-6.128,1.484-8.271,3.068-2.246,1.683-4.576,3.4-9.221,3.4S990.531,6.285,988.27,4.6Zm-35,0c-2.143-1.584-4.163-3.068-8.271-3.068V0c4.646,0,6.977,1.733,9.237,3.4,2.142,1.584,4.163,3.082,8.271,3.082s6.128-1.5,8.27-3.082C973.023,1.733,975.354,0,980,0V1.534c-4.111,0-6.128,1.484-8.271,3.068-2.245,1.683-4.576,3.4-9.221,3.4S955.531,6.285,953.271,4.6Zm-35,0c-2.143-1.584-4.163-3.068-8.271-3.068V0c4.646,0,6.977,1.733,9.237,3.4,2.142,1.584,4.163,3.082,8.271,3.082s6.128-1.5,8.27-3.082C938.023,1.733,940.354,0,945,0V1.534c-4.111,0-6.128,1.484-8.271,3.068-2.245,1.683-4.576,3.4-9.221,3.4S920.531,6.285,918.271,4.6Zm-35,0c-2.143-1.584-4.163-3.068-8.271-3.068V0c4.646,0,6.977,1.733,9.237,3.4,2.143,1.584,4.163,3.082,8.271,3.082s6.128-1.5,8.27-3.082C903.024,1.733,905.354,0,910,0V1.534c-4.111,0-6.128,1.484-8.271,3.068-2.246,1.683-4.576,3.4-9.221,3.4S885.531,6.285,883.271,4.6Zm-35,0c-2.142-1.584-4.163-3.068-8.271-3.068V0c4.647,0,6.977,1.733,9.237,3.4,2.143,1.584,4.163,3.082,8.271,3.082s6.128-1.5,8.271-3.082C868.024,1.733,870.354,0,875,0V1.534c-4.111,0-6.128,1.484-8.27,3.068-2.246,1.683-4.577,3.4-9.222,3.4S850.531,6.285,848.271,4.6Zm-35,0c-2.142-1.584-4.163-3.068-8.271-3.068V0c4.647,0,6.977,1.733,9.237,3.4,2.143,1.584,4.163,3.082,8.271,3.082s6.128-1.5,8.271-3.082C833.024,1.733,835.354,0,840,0V1.534c-4.111,0-6.128,1.484-8.27,3.068-2.245,1.683-4.576,3.4-9.222,3.4S815.531,6.285,813.271,4.6Zm-35,0c-2.142-1.584-4.162-3.068-8.27-3.068V0c4.646,0,6.976,1.733,9.237,3.4,2.142,1.584,4.162,3.082,8.27,3.082s6.128-1.5,8.271-3.082C798.024,1.733,800.354,0,805,0V1.534c-4.111,0-6.128,1.484-8.27,3.068-2.245,1.683-4.576,3.4-9.222,3.4S780.531,6.285,778.271,4.6Zm-35,0c-2.142-1.584-4.163-3.068-8.27-3.068V0c4.646,0,6.976,1.733,9.237,3.4,2.142,1.584,4.163,3.082,8.27,3.082s6.129-1.5,8.271-3.082C763.024,1.733,765.354,0,770,0V1.534c-4.112,0-6.129,1.484-8.271,3.068-2.245,1.683-4.576,3.4-9.222,3.4S745.531,6.285,743.27,4.6Zm-35,0c-2.142-1.584-4.163-3.068-8.27-3.068V0c4.646,0,6.976,1.733,9.237,3.4,2.142,1.584,4.162,3.082,8.27,3.082s6.129-1.5,8.271-3.082C728.023,1.733,730.354,0,735,0V1.534c-4.112,0-6.129,1.484-8.271,3.068-2.245,1.683-4.576,3.4-9.222,3.4S710.531,6.285,708.27,4.6Zm-35,0c-2.142-1.584-4.162-3.068-8.27-3.068V0c4.646,0,6.976,1.733,9.237,3.4,2.142,1.584,4.162,3.082,8.271,3.082s6.128-1.5,8.27-3.082C693.023,1.733,695.354,0,700,0V1.534c-4.111,0-6.128,1.484-8.271,3.068-2.245,1.683-4.576,3.4-9.221,3.4S675.531,6.285,673.27,4.6Zm-35,0c-2.143-1.584-4.163-3.068-8.271-3.068V0c4.646,0,6.977,1.733,9.237,3.4,2.142,1.584,4.163,3.082,8.271,3.082s6.128-1.5,8.27-3.082C658.023,1.733,660.354,0,665,0V1.534c-4.111,0-6.128,1.484-8.271,3.068-2.245,1.683-4.576,3.4-9.221,3.4S640.531,6.285,638.271,4.6Zm-35,0c-2.143-1.584-4.163-3.068-8.271-3.068V0c4.646,0,6.977,1.733,9.237,3.4,2.142,1.584,4.163,3.082,8.271,3.082s6.128-1.5,8.27-3.082C623.023,1.733,625.354,0,630,0V1.534c-4.111,0-6.128,1.484-8.271,3.068-2.245,1.683-4.576,3.4-9.221,3.4S605.531,6.285,603.271,4.6Zm-35,0c-2.143-1.584-4.163-3.068-8.271-3.068V0c4.646,0,6.977,1.733,9.237,3.4,2.143,1.584,4.163,3.082,8.271,3.082s6.128-1.5,8.27-3.082C588.024,1.733,590.354,0,595,0V1.534c-4.111,0-6.128,1.484-8.27,3.068-2.246,1.683-4.576,3.4-9.222,3.4S570.531,6.285,568.271,4.6Zm-35,0c-2.142-1.584-4.163-3.068-8.271-3.068V0c4.647,0,6.977,1.733,9.237,3.4,2.143,1.584,4.163,3.082,8.271,3.082s6.128-1.5,8.271-3.082C553.024,1.733,555.354,0,560,0V1.534c-4.111,0-6.128,1.484-8.27,3.068-2.246,1.683-4.577,3.4-9.222,3.4S535.531,6.285,533.271,4.6Zm-35,0c-2.142-1.584-4.162-3.068-8.271-3.068V0c4.647,0,6.977,1.733,9.237,3.4,2.143,1.584,4.163,3.082,8.271,3.082s6.128-1.5,8.271-3.082C518.024,1.733,520.354,0,525,0V1.534c-4.111,0-6.128,1.484-8.27,3.068-2.245,1.683-4.576,3.4-9.222,3.4S500.531,6.285,498.271,4.6Zm-35,0c-2.142-1.584-4.163-3.068-8.27-3.068V0c4.646,0,6.976,1.733,9.237,3.4,2.142,1.584,4.162,3.082,8.27,3.082s6.128-1.5,8.271-3.082C483.024,1.733,485.354,0,490,0V1.534c-4.111,0-6.128,1.484-8.27,3.068-2.246,1.683-4.577,3.4-9.222,3.4S465.531,6.285,463.271,4.6Zm-35,0c-2.142-1.584-4.163-3.068-8.27-3.068V0c4.646,0,6.976,1.733,9.237,3.4,2.142,1.584,4.163,3.082,8.27,3.082s6.129-1.5,8.271-3.082C448.024,1.733,450.354,0,455,0V1.534c-4.112,0-6.129,1.484-8.271,3.068-2.245,1.683-4.576,3.4-9.222,3.4S430.531,6.285,428.27,4.6Zm-35,0c-2.142-1.584-4.163-3.068-8.27-3.068V0c4.646,0,6.976,1.733,9.237,3.4,2.142,1.584,4.163,3.082,8.27,3.082s6.129-1.5,8.271-3.082C413.023,1.733,415.354,0,420,0V1.534c-4.112,0-6.129,1.484-8.271,3.068-2.246,1.683-4.576,3.4-9.222,3.4S395.531,6.285,393.27,4.6Zm-35,0c-2.143-1.584-4.163-3.068-8.271-3.068V0c4.646,0,6.976,1.733,9.237,3.4,2.142,1.584,4.163,3.082,8.271,3.082s6.128-1.5,8.27-3.082C378.023,1.733,380.354,0,385,0V1.534c-4.111,0-6.128,1.484-8.271,3.068-2.246,1.683-4.576,3.4-9.221,3.4S360.531,6.285,358.271,4.6Zm-35,0c-2.143-1.584-4.163-3.068-8.271-3.068V0c4.646,0,6.977,1.733,9.237,3.4,2.142,1.584,4.163,3.082,8.271,3.082s6.128-1.5,8.27-3.082C343.023,1.733,345.354,0,350,0V1.534c-4.111,0-6.128,1.484-8.271,3.068-2.245,1.683-4.576,3.4-9.221,3.4S325.531,6.285,323.271,4.6Zm-35,0c-2.143-1.584-4.163-3.068-8.271-3.068V0c4.646,0,6.977,1.733,9.237,3.4,2.143,1.584,4.163,3.082,8.271,3.082s6.128-1.5,8.27-3.082C308.023,1.733,310.354,0,315,0V1.534c-4.111,0-6.128,1.484-8.271,3.068-2.245,1.683-4.576,3.4-9.221,3.4S290.531,6.285,288.271,4.6Zm-35,0c-2.143-1.584-4.163-3.068-8.271-3.068V0c4.646,0,6.977,1.733,9.237,3.4,2.143,1.584,4.163,3.082,8.271,3.082s6.128-1.5,8.27-3.082C273.024,1.733,275.354,0,280,0V1.534c-4.111,0-6.128,1.484-8.271,3.068-2.246,1.683-4.576,3.4-9.221,3.4S255.531,6.285,253.271,4.6Zm-35,0c-2.142-1.584-4.163-3.068-8.271-3.068V0c4.647,0,6.977,1.733,9.237,3.4,2.143,1.584,4.163,3.082,8.271,3.082s6.128-1.5,8.271-3.082C238.024,1.733,240.354,0,245,0V1.534c-4.111,0-6.128,1.484-8.27,3.068-2.245,1.683-4.577,3.4-9.222,3.4S220.531,6.285,218.271,4.6Zm-35,0c-2.142-1.584-4.162-3.068-8.271-3.068V0c4.647,0,6.977,1.733,9.237,3.4,2.143,1.584,4.163,3.082,8.271,3.082s6.128-1.5,8.271-3.082C203.024,1.733,205.354,0,210,0V1.534c-4.111,0-6.128,1.484-8.27,3.068-2.245,1.683-4.576,3.4-9.222,3.4S185.531,6.285,183.271,4.6Zm-35,0c-2.142-1.584-4.163-3.068-8.27-3.068V0c4.646,0,6.976,1.733,9.237,3.4,2.142,1.584,4.162,3.082,8.27,3.082s6.128-1.5,8.271-3.082C168.024,1.733,170.354,0,175,0V1.534c-4.111,0-6.128,1.484-8.27,3.068-2.245,1.683-4.577,3.4-9.222,3.4S150.531,6.285,148.271,4.6Zm-35,0c-2.142-1.584-4.162-3.068-8.27-3.068V0c4.646,0,6.976,1.733,9.237,3.4,2.142,1.584,4.163,3.082,8.27,3.082s6.129-1.5,8.271-3.082C133.024,1.733,135.354,0,140,0V1.534c-4.112,0-6.129,1.484-8.271,3.068-2.245,1.683-4.576,3.4-9.222,3.4S115.531,6.285,113.27,4.6Zm-35,0C76.128,3.018,74.108,1.534,70,1.534V0c4.646,0,6.976,1.733,9.237,3.4C81.379,4.982,83.4,6.48,87.507,6.48s6.129-1.5,8.271-3.082C98.024,1.733,100.354,0,105,0V1.534c-4.112,0-6.129,1.484-8.271,3.068C94.484,6.285,92.154,8,87.507,8S80.531,6.285,78.27,4.6Zm-35,0C41.128,3.018,39.108,1.534,35,1.534V0c4.646,0,6.976,1.733,9.237,3.4C46.379,4.982,48.4,6.48,52.508,6.48s6.128-1.5,8.27-3.082C63.023,1.733,65.354,0,70,0V1.534c-4.111,0-6.128,1.484-8.271,3.068C59.484,6.285,57.154,8,52.508,8S45.531,6.285,43.27,4.6Zm-35,0C6.128,3.018,4.108,1.534,0,1.534V0C4.646,0,6.977,1.733,9.237,3.4,11.379,4.982,13.4,6.48,17.508,6.48s6.128-1.5,8.27-3.082C28.023,1.733,30.354,0,35,0V1.534c-4.111,0-6.128,1.484-8.271,3.068C24.484,6.285,22.153,8,17.508,8S10.531,6.285,8.271,4.6Z" transform="translate(-12675 -21231)" fill="#fff"/>
    <path id="Union_3" data-name="Union 3" d="M1898.271,4.6c-2.143-1.584-4.163-3.068-8.271-3.068V0c4.646,0,6.977,1.733,9.237,3.4,2.142,1.584,4.163,3.082,8.271,3.082s6.128-1.5,8.27-3.082c2.245-1.665,4.577-3.4,9.222-3.4V1.534c-4.111,0-6.128,1.484-8.271,3.068-2.245,1.683-4.576,3.4-9.221,3.4S1900.531,6.285,1898.271,4.6Zm-35,0c-2.143-1.584-4.163-3.068-8.271-3.068V0c4.646,0,6.977,1.733,9.237,3.4,2.142,1.584,4.163,3.082,8.271,3.082s6.128-1.5,8.27-3.082c2.245-1.665,4.577-3.4,9.222-3.4V1.534c-4.111,0-6.128,1.484-8.271,3.068-2.245,1.683-4.576,3.4-9.221,3.4S1865.531,6.285,1863.271,4.6Zm-35,0c-2.143-1.584-4.163-3.068-8.271-3.068V0c4.646,0,6.977,1.733,9.237,3.4,2.143,1.584,4.163,3.082,8.271,3.082s6.128-1.5,8.27-3.082c2.246-1.665,4.577-3.4,9.222-3.4V1.534c-4.111,0-6.128,1.484-8.271,3.068-2.246,1.683-4.576,3.4-9.221,3.4S1830.531,6.285,1828.271,4.6Zm-35,0c-2.142-1.584-4.163-3.068-8.271-3.068V0c4.647,0,6.977,1.733,9.237,3.4,2.143,1.584,4.163,3.082,8.271,3.082s6.128-1.5,8.271-3.082c2.245-1.665,4.576-3.4,9.221-3.4V1.534c-4.111,0-6.128,1.484-8.27,3.068-2.246,1.683-4.577,3.4-9.222,3.4S1795.531,6.285,1793.271,4.6Zm-35,0c-2.142-1.584-4.163-3.068-8.271-3.068V0c4.647,0,6.977,1.733,9.237,3.4,2.143,1.584,4.163,3.082,8.271,3.082s6.128-1.5,8.271-3.082c2.245-1.665,4.576-3.4,9.221-3.4V1.534c-4.111,0-6.128,1.484-8.27,3.068-2.245,1.683-4.576,3.4-9.222,3.4S1760.531,6.285,1758.271,4.6Zm-35,0c-2.142-1.584-4.162-3.068-8.27-3.068V0c4.646,0,6.976,1.733,9.237,3.4,2.142,1.584,4.162,3.082,8.27,3.082s6.128-1.5,8.271-3.082c2.245-1.665,4.576-3.4,9.221-3.4V1.534c-4.111,0-6.128,1.484-8.27,3.068-2.245,1.683-4.576,3.4-9.222,3.4S1725.531,6.285,1723.271,4.6Zm-35,0c-2.142-1.584-4.162-3.068-8.27-3.068V0c4.646,0,6.976,1.733,9.237,3.4,2.142,1.584,4.162,3.082,8.27,3.082s6.129-1.5,8.271-3.082c2.245-1.665,4.576-3.4,9.222-3.4V1.534c-4.112,0-6.129,1.484-8.271,3.068-2.246,1.683-4.576,3.4-9.222,3.4S1690.531,6.285,1688.27,4.6Zm-35,0c-2.142-1.584-4.163-3.068-8.27-3.068V0c4.646,0,6.976,1.733,9.237,3.4,2.142,1.584,4.162,3.082,8.27,3.082s6.129-1.5,8.271-3.082c2.245-1.665,4.576-3.4,9.222-3.4V1.534c-4.112,0-6.129,1.484-8.271,3.068-2.245,1.683-4.576,3.4-9.222,3.4S1655.531,6.285,1653.27,4.6Zm-35,0c-2.142-1.584-4.162-3.068-8.27-3.068V0c4.646,0,6.976,1.733,9.237,3.4,2.142,1.584,4.162,3.082,8.27,3.082s6.129-1.5,8.271-3.082c2.245-1.665,4.577-3.4,9.222-3.4V1.534c-4.111,0-6.128,1.484-8.271,3.068-2.245,1.683-4.576,3.4-9.222,3.4S1620.531,6.285,1618.27,4.6Zm-35,0c-2.143-1.584-4.163-3.068-8.271-3.068V0c4.646,0,6.977,1.733,9.237,3.4,2.142,1.584,4.163,3.082,8.271,3.082s6.128-1.5,8.27-3.082c2.245-1.665,4.577-3.4,9.222-3.4V1.534c-4.111,0-6.128,1.484-8.271,3.068-2.245,1.683-4.576,3.4-9.221,3.4S1585.531,6.285,1583.271,4.6Zm-35,0c-2.143-1.584-4.163-3.068-8.271-3.068V0c4.646,0,6.977,1.733,9.237,3.4,2.142,1.584,4.163,3.082,8.271,3.082s6.128-1.5,8.27-3.082c2.245-1.665,4.577-3.4,9.222-3.4V1.534c-4.111,0-6.128,1.484-8.271,3.068-2.245,1.683-4.576,3.4-9.221,3.4S1550.531,6.285,1548.271,4.6Zm-35,0c-2.143-1.584-4.163-3.068-8.271-3.068V0c4.646,0,6.977,1.733,9.237,3.4,2.143,1.584,4.163,3.082,8.271,3.082s6.128-1.5,8.27-3.082c2.246-1.665,4.577-3.4,9.222-3.4V1.534c-4.111,0-6.128,1.484-8.271,3.068-2.245,1.683-4.576,3.4-9.221,3.4S1515.531,6.285,1513.271,4.6Zm-35,0c-2.142-1.584-4.163-3.068-8.271-3.068V0c4.647,0,6.977,1.733,9.237,3.4,2.143,1.584,4.163,3.082,8.271,3.082s6.128-1.5,8.271-3.082c2.245-1.665,4.576-3.4,9.221-3.4V1.534c-4.111,0-6.128,1.484-8.27,3.068-2.246,1.683-4.577,3.4-9.222,3.4S1480.531,6.285,1478.271,4.6Zm-35,0c-2.142-1.584-4.163-3.068-8.271-3.068V0c4.647,0,6.977,1.733,9.237,3.4,2.143,1.584,4.163,3.082,8.271,3.082s6.128-1.5,8.271-3.082c2.245-1.665,4.576-3.4,9.221-3.4V1.534c-4.111,0-6.128,1.484-8.27,3.068-2.245,1.683-4.577,3.4-9.222,3.4S1445.531,6.285,1443.271,4.6Zm-35,0c-2.142-1.584-4.162-3.068-8.27-3.068V0c4.646,0,6.976,1.733,9.237,3.4,2.142,1.584,4.162,3.082,8.27,3.082s6.128-1.5,8.271-3.082c2.245-1.665,4.576-3.4,9.221-3.4V1.534c-4.111,0-6.128,1.484-8.27,3.068-2.245,1.683-4.576,3.4-9.222,3.4S1410.531,6.285,1408.271,4.6Zm-35,0c-2.142-1.584-4.162-3.068-8.27-3.068V0c4.646,0,6.976,1.733,9.237,3.4,2.142,1.584,4.162,3.082,8.27,3.082s6.129-1.5,8.271-3.082c2.246-1.665,4.576-3.4,9.222-3.4V1.534c-4.112,0-6.129,1.484-8.271,3.068-2.246,1.683-4.576,3.4-9.222,3.4S1375.531,6.285,1373.27,4.6Zm-35,0c-2.142-1.584-4.163-3.068-8.27-3.068V0c4.646,0,6.976,1.733,9.237,3.4,2.142,1.584,4.162,3.082,8.27,3.082s6.129-1.5,8.271-3.082c2.245-1.665,4.576-3.4,9.222-3.4V1.534c-4.112,0-6.129,1.484-8.271,3.068-2.245,1.683-4.576,3.4-9.222,3.4S1340.531,6.285,1338.27,4.6Zm-35,0c-2.142-1.584-4.162-3.068-8.27-3.068V0c4.646,0,6.976,1.733,9.237,3.4,2.142,1.584,4.162,3.082,8.27,3.082s6.129-1.5,8.271-3.082c2.245-1.665,4.577-3.4,9.222-3.4V1.534c-4.111,0-6.128,1.484-8.271,3.068-2.245,1.683-4.576,3.4-9.222,3.4S1305.531,6.285,1303.27,4.6Zm-35,0c-2.143-1.584-4.163-3.068-8.271-3.068V0c4.646,0,6.977,1.733,9.237,3.4,2.142,1.584,4.163,3.082,8.271,3.082s6.128-1.5,8.27-3.082c2.245-1.665,4.577-3.4,9.222-3.4V1.534c-4.111,0-6.128,1.484-8.271,3.068-2.245,1.683-4.576,3.4-9.221,3.4S1270.531,6.285,1268.271,4.6Zm-35,0c-2.143-1.584-4.163-3.068-8.271-3.068V0c4.646,0,6.977,1.733,9.237,3.4,2.142,1.584,4.163,3.082,8.271,3.082s6.128-1.5,8.27-3.082c2.245-1.665,4.577-3.4,9.222-3.4V1.534c-4.111,0-6.128,1.484-8.271,3.068-2.245,1.683-4.576,3.4-9.221,3.4S1235.531,6.285,1233.271,4.6Zm-35,0c-2.143-1.584-4.163-3.068-8.271-3.068V0c4.646,0,6.977,1.733,9.237,3.4,2.143,1.584,4.163,3.082,8.271,3.082s6.128-1.5,8.27-3.082c2.245-1.665,4.577-3.4,9.222-3.4V1.534c-4.111,0-6.128,1.484-8.271,3.068-2.245,1.683-4.576,3.4-9.221,3.4S1200.531,6.285,1198.271,4.6Zm-35,0c-2.142-1.584-4.163-3.068-8.271-3.068V0c4.647,0,6.977,1.733,9.237,3.4,2.143,1.584,4.163,3.082,8.271,3.082s6.128-1.5,8.271-3.082c2.245-1.665,4.576-3.4,9.221-3.4V1.534c-4.111,0-6.128,1.484-8.27,3.068-2.246,1.683-4.577,3.4-9.222,3.4S1165.531,6.285,1163.271,4.6Zm-35,0c-2.142-1.584-4.163-3.068-8.271-3.068V0c4.647,0,6.977,1.733,9.237,3.4,2.143,1.584,4.163,3.082,8.271,3.082s6.128-1.5,8.271-3.082c2.245-1.665,4.576-3.4,9.221-3.4V1.534c-4.111,0-6.128,1.484-8.27,3.068-2.245,1.683-4.577,3.4-9.222,3.4S1130.531,6.285,1128.271,4.6Zm-35,0c-2.142-1.584-4.162-3.068-8.27-3.068V0c4.646,0,6.976,1.733,9.237,3.4,2.142,1.584,4.162,3.082,8.27,3.082s6.128-1.5,8.271-3.082c2.245-1.665,4.576-3.4,9.221-3.4V1.534c-4.111,0-6.128,1.484-8.27,3.068-2.245,1.683-4.576,3.4-9.222,3.4S1095.531,6.285,1093.271,4.6Zm-35,0c-2.142-1.584-4.162-3.068-8.27-3.068V0c4.646,0,6.976,1.733,9.237,3.4,2.142,1.584,4.162,3.082,8.27,3.082s6.129-1.5,8.271-3.082c2.246-1.665,4.576-3.4,9.222-3.4V1.534c-4.112,0-6.129,1.484-8.271,3.068-2.245,1.683-4.576,3.4-9.222,3.4S1060.531,6.285,1058.27,4.6Zm-35,0c-2.142-1.584-4.162-3.068-8.27-3.068V0c4.646,0,6.976,1.733,9.237,3.4,2.142,1.584,4.162,3.082,8.27,3.082s6.129-1.5,8.271-3.082c2.245-1.665,4.576-3.4,9.222-3.4V1.534c-4.112,0-6.129,1.484-8.271,3.068-2.246,1.683-4.576,3.4-9.222,3.4S1025.531,6.285,1023.27,4.6Zm-35,0c-2.142-1.584-4.162-3.068-8.27-3.068V0c4.646,0,6.976,1.733,9.237,3.4,2.142,1.584,4.163,3.082,8.271,3.082s6.128-1.5,8.27-3.082c2.245-1.665,4.576-3.4,9.222-3.4V1.534c-4.111,0-6.128,1.484-8.271,3.068-2.246,1.683-4.576,3.4-9.221,3.4S990.531,6.285,988.27,4.6Zm-35,0c-2.143-1.584-4.163-3.068-8.271-3.068V0c4.646,0,6.977,1.733,9.237,3.4,2.142,1.584,4.163,3.082,8.271,3.082s6.128-1.5,8.27-3.082C973.023,1.733,975.354,0,980,0V1.534c-4.111,0-6.128,1.484-8.271,3.068-2.245,1.683-4.576,3.4-9.221,3.4S955.531,6.285,953.271,4.6Zm-35,0c-2.143-1.584-4.163-3.068-8.271-3.068V0c4.646,0,6.977,1.733,9.237,3.4,2.142,1.584,4.163,3.082,8.271,3.082s6.128-1.5,8.27-3.082C938.023,1.733,940.354,0,945,0V1.534c-4.111,0-6.128,1.484-8.271,3.068-2.245,1.683-4.576,3.4-9.221,3.4S920.531,6.285,918.271,4.6Zm-35,0c-2.143-1.584-4.163-3.068-8.271-3.068V0c4.646,0,6.977,1.733,9.237,3.4,2.143,1.584,4.163,3.082,8.271,3.082s6.128-1.5,8.27-3.082C903.024,1.733,905.354,0,910,0V1.534c-4.111,0-6.128,1.484-8.271,3.068-2.246,1.683-4.576,3.4-9.221,3.4S885.531,6.285,883.271,4.6Zm-35,0c-2.142-1.584-4.163-3.068-8.271-3.068V0c4.647,0,6.977,1.733,9.237,3.4,2.143,1.584,4.163,3.082,8.271,3.082s6.128-1.5,8.271-3.082C868.024,1.733,870.354,0,875,0V1.534c-4.111,0-6.128,1.484-8.27,3.068-2.246,1.683-4.577,3.4-9.222,3.4S850.531,6.285,848.271,4.6Zm-35,0c-2.142-1.584-4.163-3.068-8.271-3.068V0c4.647,0,6.977,1.733,9.237,3.4,2.143,1.584,4.163,3.082,8.271,3.082s6.128-1.5,8.271-3.082C833.024,1.733,835.354,0,840,0V1.534c-4.111,0-6.128,1.484-8.27,3.068-2.245,1.683-4.576,3.4-9.222,3.4S815.531,6.285,813.271,4.6Zm-35,0c-2.142-1.584-4.162-3.068-8.27-3.068V0c4.646,0,6.976,1.733,9.237,3.4,2.142,1.584,4.162,3.082,8.27,3.082s6.128-1.5,8.271-3.082C798.024,1.733,800.354,0,805,0V1.534c-4.111,0-6.128,1.484-8.27,3.068-2.245,1.683-4.576,3.4-9.222,3.4S780.531,6.285,778.271,4.6Zm-35,0c-2.142-1.584-4.163-3.068-8.27-3.068V0c4.646,0,6.976,1.733,9.237,3.4,2.142,1.584,4.163,3.082,8.27,3.082s6.129-1.5,8.271-3.082C763.024,1.733,765.354,0,770,0V1.534c-4.112,0-6.129,1.484-8.271,3.068-2.245,1.683-4.576,3.4-9.222,3.4S745.531,6.285,743.27,4.6Zm-35,0c-2.142-1.584-4.163-3.068-8.27-3.068V0c4.646,0,6.976,1.733,9.237,3.4,2.142,1.584,4.162,3.082,8.27,3.082s6.129-1.5,8.271-3.082C728.023,1.733,730.354,0,735,0V1.534c-4.112,0-6.129,1.484-8.271,3.068-2.245,1.683-4.576,3.4-9.222,3.4S710.531,6.285,708.27,4.6Zm-35,0c-2.142-1.584-4.162-3.068-8.27-3.068V0c4.646,0,6.976,1.733,9.237,3.4,2.142,1.584,4.162,3.082,8.271,3.082s6.128-1.5,8.27-3.082C693.023,1.733,695.354,0,700,0V1.534c-4.111,0-6.128,1.484-8.271,3.068-2.245,1.683-4.576,3.4-9.221,3.4S675.531,6.285,673.27,4.6Zm-35,0c-2.143-1.584-4.163-3.068-8.271-3.068V0c4.646,0,6.977,1.733,9.237,3.4,2.142,1.584,4.163,3.082,8.271,3.082s6.128-1.5,8.27-3.082C658.023,1.733,660.354,0,665,0V1.534c-4.111,0-6.128,1.484-8.271,3.068-2.245,1.683-4.576,3.4-9.221,3.4S640.531,6.285,638.271,4.6Zm-35,0c-2.143-1.584-4.163-3.068-8.271-3.068V0c4.646,0,6.977,1.733,9.237,3.4,2.142,1.584,4.163,3.082,8.271,3.082s6.128-1.5,8.27-3.082C623.023,1.733,625.354,0,630,0V1.534c-4.111,0-6.128,1.484-8.271,3.068-2.245,1.683-4.576,3.4-9.221,3.4S605.531,6.285,603.271,4.6Zm-35,0c-2.143-1.584-4.163-3.068-8.271-3.068V0c4.646,0,6.977,1.733,9.237,3.4,2.143,1.584,4.163,3.082,8.271,3.082s6.128-1.5,8.27-3.082C588.024,1.733,590.354,0,595,0V1.534c-4.111,0-6.128,1.484-8.27,3.068-2.246,1.683-4.576,3.4-9.222,3.4S570.531,6.285,568.271,4.6Zm-35,0c-2.142-1.584-4.163-3.068-8.271-3.068V0c4.647,0,6.977,1.733,9.237,3.4,2.143,1.584,4.163,3.082,8.271,3.082s6.128-1.5,8.271-3.082C553.024,1.733,555.354,0,560,0V1.534c-4.111,0-6.128,1.484-8.27,3.068-2.246,1.683-4.577,3.4-9.222,3.4S535.531,6.285,533.271,4.6Zm-35,0c-2.142-1.584-4.162-3.068-8.271-3.068V0c4.647,0,6.977,1.733,9.237,3.4,2.143,1.584,4.163,3.082,8.271,3.082s6.128-1.5,8.271-3.082C518.024,1.733,520.354,0,525,0V1.534c-4.111,0-6.128,1.484-8.27,3.068-2.245,1.683-4.576,3.4-9.222,3.4S500.531,6.285,498.271,4.6Zm-35,0c-2.142-1.584-4.163-3.068-8.27-3.068V0c4.646,0,6.976,1.733,9.237,3.4,2.142,1.584,4.162,3.082,8.27,3.082s6.128-1.5,8.271-3.082C483.024,1.733,485.354,0,490,0V1.534c-4.111,0-6.128,1.484-8.27,3.068-2.246,1.683-4.577,3.4-9.222,3.4S465.531,6.285,463.271,4.6Zm-35,0c-2.142-1.584-4.163-3.068-8.27-3.068V0c4.646,0,6.976,1.733,9.237,3.4,2.142,1.584,4.163,3.082,8.27,3.082s6.129-1.5,8.271-3.082C448.024,1.733,450.354,0,455,0V1.534c-4.112,0-6.129,1.484-8.271,3.068-2.245,1.683-4.576,3.4-9.222,3.4S430.531,6.285,428.27,4.6Zm-35,0c-2.142-1.584-4.163-3.068-8.27-3.068V0c4.646,0,6.976,1.733,9.237,3.4,2.142,1.584,4.163,3.082,8.27,3.082s6.129-1.5,8.271-3.082C413.023,1.733,415.354,0,420,0V1.534c-4.112,0-6.129,1.484-8.271,3.068-2.246,1.683-4.576,3.4-9.222,3.4S395.531,6.285,393.27,4.6Zm-35,0c-2.143-1.584-4.163-3.068-8.271-3.068V0c4.646,0,6.976,1.733,9.237,3.4,2.142,1.584,4.163,3.082,8.271,3.082s6.128-1.5,8.27-3.082C378.023,1.733,380.354,0,385,0V1.534c-4.111,0-6.128,1.484-8.271,3.068-2.246,1.683-4.576,3.4-9.221,3.4S360.531,6.285,358.271,4.6Zm-35,0c-2.143-1.584-4.163-3.068-8.271-3.068V0c4.646,0,6.977,1.733,9.237,3.4,2.142,1.584,4.163,3.082,8.271,3.082s6.128-1.5,8.27-3.082C343.023,1.733,345.354,0,350,0V1.534c-4.111,0-6.128,1.484-8.271,3.068-2.245,1.683-4.576,3.4-9.221,3.4S325.531,6.285,323.271,4.6Zm-35,0c-2.143-1.584-4.163-3.068-8.271-3.068V0c4.646,0,6.977,1.733,9.237,3.4,2.143,1.584,4.163,3.082,8.271,3.082s6.128-1.5,8.27-3.082C308.023,1.733,310.354,0,315,0V1.534c-4.111,0-6.128,1.484-8.271,3.068-2.245,1.683-4.576,3.4-9.221,3.4S290.531,6.285,288.271,4.6Zm-35,0c-2.143-1.584-4.163-3.068-8.271-3.068V0c4.646,0,6.977,1.733,9.237,3.4,2.143,1.584,4.163,3.082,8.271,3.082s6.128-1.5,8.27-3.082C273.024,1.733,275.354,0,280,0V1.534c-4.111,0-6.128,1.484-8.271,3.068-2.246,1.683-4.576,3.4-9.221,3.4S255.531,6.285,253.271,4.6Zm-35,0c-2.142-1.584-4.163-3.068-8.271-3.068V0c4.647,0,6.977,1.733,9.237,3.4,2.143,1.584,4.163,3.082,8.271,3.082s6.128-1.5,8.271-3.082C238.024,1.733,240.354,0,245,0V1.534c-4.111,0-6.128,1.484-8.27,3.068-2.245,1.683-4.577,3.4-9.222,3.4S220.531,6.285,218.271,4.6Zm-35,0c-2.142-1.584-4.162-3.068-8.271-3.068V0c4.647,0,6.977,1.733,9.237,3.4,2.143,1.584,4.163,3.082,8.271,3.082s6.128-1.5,8.271-3.082C203.024,1.733,205.354,0,210,0V1.534c-4.111,0-6.128,1.484-8.27,3.068-2.245,1.683-4.576,3.4-9.222,3.4S185.531,6.285,183.271,4.6Zm-35,0c-2.142-1.584-4.163-3.068-8.27-3.068V0c4.646,0,6.976,1.733,9.237,3.4,2.142,1.584,4.162,3.082,8.27,3.082s6.128-1.5,8.271-3.082C168.024,1.733,170.354,0,175,0V1.534c-4.111,0-6.128,1.484-8.27,3.068-2.245,1.683-4.577,3.4-9.222,3.4S150.531,6.285,148.271,4.6Zm-35,0c-2.142-1.584-4.162-3.068-8.27-3.068V0c4.646,0,6.976,1.733,9.237,3.4,2.142,1.584,4.163,3.082,8.27,3.082s6.129-1.5,8.271-3.082C133.024,1.733,135.354,0,140,0V1.534c-4.112,0-6.129,1.484-8.271,3.068-2.245,1.683-4.576,3.4-9.222,3.4S115.531,6.285,113.27,4.6Zm-35,0C76.128,3.018,74.108,1.534,70,1.534V0c4.646,0,6.976,1.733,9.237,3.4C81.379,4.982,83.4,6.48,87.507,6.48s6.129-1.5,8.271-3.082C98.024,1.733,100.354,0,105,0V1.534c-4.112,0-6.129,1.484-8.271,3.068C94.484,6.285,92.154,8,87.507,8S80.531,6.285,78.27,4.6Zm-35,0C41.128,3.018,39.108,1.534,35,1.534V0c4.646,0,6.976,1.733,9.237,3.4C46.379,4.982,48.4,6.48,52.508,6.48s6.128-1.5,8.27-3.082C63.023,1.733,65.354,0,70,0V1.534c-4.111,0-6.128,1.484-8.271,3.068C59.484,6.285,57.154,8,52.508,8S45.531,6.285,43.27,4.6Zm-35,0C6.128,3.018,4.108,1.534,0,1.534V0C4.646,0,6.977,1.733,9.237,3.4,11.379,4.982,13.4,6.48,17.508,6.48s6.128-1.5,8.27-3.082C28.023,1.733,30.354,0,35,0V1.534c-4.111,0-6.128,1.484-8.271,3.068C24.484,6.285,22.153,8,17.508,8S10.531,6.285,8.271,4.6Z" transform="translate(-12675 -21223)" fill="#fff"/>
  </g>
</svg>